<svg xmlns="http://www.w3.org/2000/svg" xmlns:xlink="http://www.w3.org/1999/xlink" width="1024" zoomAndPan="magnify" viewBox="0 0 768 767.999994" height="1024" preserveAspectRatio="xMidYMid meet" version="1.0"><path fill="#000000" d="M 366.195312 111.917969 C 57.074219 144.949219 43.386719 537.949219 345.542969 585.0625 C 359.535156 587.246094 371.195312 590.351562 371.195312 591.898438 C 371.195312 593.445312 364.136719 606.066406 355.40625 620.066406 C 339.199219 646.066406 337.101562 653.671875 343.089844 664.734375 C 349.171875 675.984375 362.53125 675.953125 396.511719 664.59375 C 462.824219 642.429688 535.550781 601.335938 581.4375 560.101562 C 624.054688 521.800781 658.175781 468.394531 672.148438 418.050781 C 724.347656 230.328125 550.382812 92.226562 366.179688 111.917969 Z M 489.808594 160.230469 C 705.09375 233.304688 702.429688 486.347656 444.167969 606.527344 C 391.519531 631.054688 392.46875 631.128906 407.554688 602.398438 C 414.730469 588.734375 419.984375 574.164062 419.339844 569.730469 C 418.253906 562.285156 415.179688 561.300781 374.855469 555.5625 C 350.871094 552.144531 319.203125 545.277344 303.886719 540.175781 C 270.90625 529.167969 230.164062 502.921875 210.078125 479.726562 C 182.742188 448.164062 161.289062 391.714844 161.289062 351.355469 C 161.289062 329.277344 170.53125 291.023438 181.5 267.6875 C 208.507812 210.253906 270.285156 166.460938 346.875 150.265625 C 355.292969 148.488281 383.519531 147.484375 409.507812 148.03125 C 451.824219 148.929688 460.308594 150.214844 489.808594 160.230469 Z M 489.808594 160.230469 " fill-opacity="1" fill-rule="nonzero"/><path fill="#000000" d="M 382.246094 338.378906 C 383.878906 359.050781 391.464844 371.753906 409.476562 383.921875 C 424.429688 394.027344 451.792969 394.550781 467.449219 385.117188 C 483.277344 375.542969 494.800781 350.046875 492.488281 329.710938 C 487.871094 289.042969 441.632812 265.683594 409.132812 287.59375 C 414.175781 287.59375 379.164062 298.542969 382.246094 338.378906 Z M 458.460938 336.382812 C 458.460938 345.714844 447.964844 360.046875 441.132812 360.046875 C 433.132812 360.046875 420.464844 351.757812 417.207031 344.382812 C 414.425781 338.109375 415.382812 334.714844 422.460938 325.714844 C 438.976562 304.742188 458.492188 319.082031 458.492188 336.382812 Z M 458.460938 336.382812 " fill-opacity="1" fill-rule="nonzero"/><path fill="#000000" d="M 529.289062 301.878906 C 517.367188 314.878906 514.464844 320.6875 514.464844 331.378906 C 514.464844 369.050781 561.644531 393.429688 593.738281 372.351562 C 622.578125 353.433594 622.398438 307.234375 593.410156 288.234375 C 583.078125 281.472656 560.941406 278.601562 551.09375 282.753906 C 552.148438 282.753906 546.632812 282.96875 529.289062 301.878906 Z M 581.101562 330.382812 C 581.101562 345.050781 562.304688 352.191406 552.964844 341.011719 C 549.566406 336.925781 550.203125 334.011719 556.339844 325.347656 C 564.375 314.015625 570.019531 312.199219 576.769531 318.804688 C 577.472656 318.820312 581.101562 324.734375 581.101562 330.382812 Z M 581.101562 330.382812 " fill-opacity="1" fill-rule="nonzero"/><path fill="#000000" d="M 273.234375 294.269531 C 251.242188 305.664062 240.601562 326.375 242.523438 354.046875 C 244.671875 385.050781 262.804688 404.992188 291.898438 408.328125 C 312.550781 410.699219 322.449219 408.082031 335.875 396.695312 C 360.195312 376.074219 368.15625 337.464844 352.773438 314.71875 C 336.054688 290 299.558594 280.621094 273.234375 294.277344 Z M 318.5 364.714844 C 306.40625 380.054688 288.933594 379.050781 278.039062 362.386719 C 261.480469 337.039062 296.132812 311.183594 319.53125 331.421875 C 322.585938 331.421875 331.347656 348.429688 318.5 364.714844 Z M 318.5 364.714844 " fill-opacity="1" fill-rule="nonzero"/></svg>