<svg xmlns="http://www.w3.org/2000/svg" xmlns:xlink="http://www.w3.org/1999/xlink" width="1024" zoomAndPan="magnify" viewBox="0 0 768 767.999994" height="1024" preserveAspectRatio="xMidYMid meet" version="1.0"><path fill="#000000" d="M 312.957031 109.609375 C 308.585938 126.824219 314.875 128.859375 364.9375 126.679688 C 401.28125 125.097656 415.621094 125.957031 435.585938 130.886719 C 486.671875 143.644531 535.917969 173.351562 581.371094 218.992188 C 642.824219 280.714844 665.035156 349.292969 648.007812 424.730469 C 642.820312 447.707031 642.828125 450.488281 648.144531 458.671875 C 658.4375 474.519531 675.058594 468.277344 681.851562 445.992188 C 689.085938 422.390625 692.726562 376.722656 689.597656 348.949219 C 682.019531 281.398438 641.136719 213.980469 576.886719 162.988281 C 544.179688 137 487.363281 107.203125 453.753906 98.386719 C 432.5 92.8125 368.496094 88.632812 351.226562 91.660156 C 356.636719 91.691406 316.878906 94.105469 312.957031 109.609375 Z M 312.957031 109.609375 " fill-opacity="1" fill-rule="nonzero"/><path fill="#000000" d="M 212.003906 158.40625 C 192.804688 163.9375 156.03125 190.878906 141.480469 210.085938 C 81.261719 289.546875 120.300781 427.824219 237.363281 549.546875 C 324.398438 640.078125 399.203125 679.613281 475.386719 675.351562 C 528.535156 672.375 568.695312 652.820312 598.554688 615.382812 C 617.417969 591.726562 639.292969 550.488281 639.292969 538.582031 C 639.292969 525.636719 626.601562 516.160156 587.519531 499.894531 C 533.3125 477.363281 498.449219 456.613281 486.699219 456.613281 C 481.988281 456.613281 465.78125 462.324219 450.691406 469.304688 C 403.027344 491.355469 380.261719 486 339.992188 443.230469 C 313.839844 415.476562 299.449219 392.769531 293.21875 369.507812 C 279.980469 320.054688 336.804688 318.792969 339.761719 287.085938 C 340.804688 275.957031 337.390625 269.421875 314.386719 238.566406 C 276.085938 187.160156 259.71875 159.667969 252.148438 156.773438 C 238.1875 151.40625 212.367188 158.40625 212.003906 158.40625 Z M 269.617188 236.160156 L 301.503906 281.425781 C 275.597656 303.601562 253.824219 319.109375 254.09375 356.867188 C 254.351562 392.070312 282.300781 442.027344 323.457031 480.835938 C 406.394531 559.050781 465.308594 496.417969 485.132812 496.417969 C 490.507812 496.417969 538.785156 521.253906 573.261719 534.996094 C 585.945312 540.042969 596.0625 545.929688 596.0625 548.195312 C 596.0625 556.082031 566.574219 597.152344 551.832031 609.800781 C 528.644531 629.691406 502.789062 638.035156 464.359375 638.035156 C 436.933594 638.035156 428.042969 636.417969 404.695312 627.167969 C 256.792969 568.5625 75.609375 317.597656 180.800781 218.589844 C 194.519531 205.679688 221.644531 190.464844 230.523438 190.691406 C 239.40625 190.917969 268.929688 236.160156 269.617188 236.160156 Z M 269.617188 236.160156 " fill-opacity="1" fill-rule="nonzero"/><path fill="#000000" d="M 334.085938 181.253906 C 325.164062 187.75 323.539062 201.921875 331 208.167969 C 334.121094 210.769531 343.339844 211.375 357.402344 209.851562 C 447.363281 200.398438 540.722656 291.339844 554.632812 402.097656 C 557.265625 423.011719 563.429688 431.582031 575.828125 431.582031 C 590.191406 431.582031 593.589844 423.359375 590.964844 394.898438 C 583.035156 308.488281 519.863281 221.105469 441.753906 188.488281 C 410.894531 175.605469 347.667969 171.347656 334.09375 181.253906 Z M 334.085938 181.253906 " fill-opacity="1" fill-rule="nonzero"/><path fill="#000000" d="M 382.792969 279 C 377.503906 290.558594 384.828125 298.152344 410.203125 307.429688 C 455.621094 324.039062 468.523438 375.6875 483.496094 392.835938 C 493.941406 404.8125 513.417969 399.011719 513.417969 383.921875 C 513.417969 368.699219 483.933594 320.3125 462.667969 300.660156 C 430.785156 271.171875 391.277344 260.464844 382.769531 279.011719 Z M 382.792969 279 " fill-opacity="1" fill-rule="nonzero"/></svg>